<?xml version="1.0" encoding="UTF-8" standalone="no"?>
<svg
   version="1.1"
   id="Layer_1"
   x="0px"
   y="0px"
   width="100%"
   viewBox="0 0 512 512"
   enable-background="new 0 0 512 512"
   xml:space="preserve"
   sodipodi:docname="logo.svg"
   inkscape:version="1.1.1 (3bf5ae0d25, 2021-09-20)"
   xmlns:inkscape="http://www.inkscape.org/namespaces/inkscape"
   xmlns:sodipodi="http://sodipodi.sourceforge.net/DTD/sodipodi-0.dtd"
   xmlns:xlink="http://www.w3.org/1999/xlink"
   xmlns="http://www.w3.org/2000/svg"
   xmlns:svg="http://www.w3.org/2000/svg"><defs
   id="defs17"><linearGradient
     inkscape:collect="always"
     id="linearGradient9836"><stop
       style="stop-color:#000000;stop-opacity:1;"
       offset="0"
       id="stop9832" /><stop
       style="stop-color:#000000;stop-opacity:0;"
       offset="1"
       id="stop9834" /></linearGradient><linearGradient
     inkscape:collect="always"
     id="linearGradient8552"><stop
       style="stop-color:#000000;stop-opacity:1;"
       offset="0"
       id="stop8548" /><stop
       style="stop-color:#000000;stop-opacity:0;"
       offset="1"
       id="stop8550" /></linearGradient><radialGradient
     inkscape:collect="always"
     xlink:href="#linearGradient8552"
     id="radialGradient8554"
     cx="256.70764"
     cy="257.00785"
     fx="256.70764"
     fy="257.00785"
     r="211.49799"
     gradientTransform="matrix(1,0,0,1.0006508,0,-0.16726139)"
     gradientUnits="userSpaceOnUse" /><radialGradient
     inkscape:collect="always"
     xlink:href="#linearGradient9836"
     id="radialGradient9838"
     cx="257"
     cy="257"
     fx="257"
     fy="257"
     r="256"
     gradientUnits="userSpaceOnUse" /></defs><sodipodi:namedview
   id="namedview15"
   pagecolor="#ffffff"
   bordercolor="#666666"
   borderopacity="1.0"
   inkscape:pageshadow="2"
   inkscape:pageopacity="0.0"
   inkscape:pagecheckerboard="0"
   showgrid="false"
   inkscape:zoom="1.1076165"
   inkscape:cx="274.01181"
   inkscape:cy="407.63207"
   inkscape:window-width="1920"
   inkscape:window-height="991"
   inkscape:window-x="-9"
   inkscape:window-y="-9"
   inkscape:window-maximized="1"
   inkscape:current-layer="Layer_1" />
<path
   fill="#fcdd66"
   opacity="1"
   stroke="none"
   d="m 235,1 c 14.35423,0 28.70847,0 43.78027,0.336044 13.23121,2.282928 25.89133,3.570736 38.22818,6.312881 26.28501,5.842436 50.80298,16.308247 73.81595,30.297711 24.71246,15.022572 46.07037,34.023167 64.4874,56.139157 16.76162,20.128117 30.07648,42.510127 39.72748,66.978447 7.8916,20.00772 13.62121,40.54869 16.02386,61.97233 0.44971,4.00979 1.2814,7.97672 1.93686,11.96343 0,14.35423 0,28.70847 -0.33606,43.78027 -2.28296,13.2313 -3.57086,25.89151 -6.31296,38.22846 -5.84234,26.285 -16.3081,50.80304 -30.2977,73.81586 -15.02267,24.71227 -34.02295,46.07049 -56.1391,64.48739 -20.12823,16.76144 -42.51013,30.07639 -66.97848,39.7273 -20.00769,7.89154 -40.54861,13.62124 -61.97226,16.02392 -4.0098,0.44968 -7.97672,1.2814 -11.96344,1.9368 -14.35422,0 -28.70845,0 -43.78027,-0.33606 -13.23119,-2.28287 -25.8913,-3.57068 -38.22812,-6.31283 -26.28498,-5.84247 -50.80297,-16.30829 -73.81595,-30.2977 C 98.463173,461.03085 77.105255,442.03018 58.688206,419.91425 41.926559,399.78616 28.611706,377.40411 18.96076,352.93573 11.069198,332.92801 5.3395,312.38709 2.936864,290.96341 2.487176,286.95364 1.655435,282.98669 1.000001,279 1,264.64578 1,250.29155 1.33604,235.21974 3.618982,221.98851 4.906826,209.32835 7.648961,196.99145 13.491356,170.70645 23.957197,146.18848 37.946659,123.17553 52.969234,98.463097 71.969856,77.105171 94.085831,58.688148 114.21392,41.926529 136.59598,28.611723 161.0643,18.960743 181.07202,11.069147 201.61296,5.339479 223.03661,2.93686 227.04637,2.487172 231.01331,1.655432 235,1 m -11.35269,47.017723 c -6.02587,1.217983 -12.1102,2.202015 -18.06827,3.691277 -44.25374,11.061573 -81.14495,34.37532 -110.385009,69.04031 -32.927201,39.0362 -49.630642,84.61344 -49.979634,135.79375 -0.136261,19.98334 2.66066,39.68301 8.367096,58.96301 13.242939,44.74323 38.439938,81.18476 75.266727,109.70505 22.98134,17.79773 48.67679,30.26376 76.74814,37.30798 19.99673,5.01795 40.42859,6.91062 61.23631,5.83133 18.76541,-0.97332 37.0408,-3.99722 54.74997,-9.82269 50.40454,-16.5806 89.37927,-47.8194 117.03714,-93.0852 18.24396,-29.85868 27.90952,-62.42801 29.36597,-97.3126 0.45465,-10.88967 0.26919,-21.95845 -1.17438,-32.73751 -1.93149,-14.42292 -4.13611,-29.02506 -8.40796,-42.87652 -10.9154,-35.39325 -30.63675,-65.47314 -57.88171,-90.7043 -18.67532,-17.294947 -39.69739,-30.743884 -63.08353,-40.607348 -17.42996,-7.351341 -35.61319,-11.985485 -54.37408,-14.04895 -10.3822,-1.141915 -20.87622,-1.889462 -31.30796,-1.770726 -9.08279,0.103382 -18.14892,1.67252 -28.10882,2.633137 z"
   id="path2"
   style="mix-blend-mode:darken;stroke:url(#radialGradient9838);stroke-width:0.6;stroke-miterlimit:4;stroke-dasharray:none" />
<path
   fill="#FFFFFF"
   opacity="1.000000"
   stroke="none"
   d=" M234.531342,1.000000   C231.013306,1.655432 227.046371,2.487172 223.036606,2.936860   C201.612961,5.339479 181.072021,11.069147 161.064301,18.960743   C136.595978,28.611723 114.213921,41.926529 94.085831,58.688148   C71.969856,77.105171 52.969234,98.463097 37.946659,123.175529   C23.957197,146.188477 13.491356,170.706451 7.648961,196.991455   C4.906826,209.328354 3.618982,221.988510 1.336040,234.751083   C1.000000,157.072952 1.000000,79.145912 1.000000,1.000000   C78.687424,1.000000 156.375061,1.000000 234.531342,1.000000  z"
   id="path4" />
<path
   fill="#FFFFFF"
   opacity="1.000000"
   stroke="none"
   d=" M513.000000,234.531342   C512.344543,231.013290 511.512848,227.046356 511.063141,223.036575   C508.660492,201.612930 502.930878,181.071960 495.039276,161.064240   C485.388275,136.595917 472.073425,114.213913 455.311798,94.085793   C436.894775,71.969803 415.536865,52.969208 390.824402,37.946636   C367.811432,23.957172 343.293457,13.491361 317.008453,7.648925   C304.671600,4.906780 292.011475,3.618972 279.248932,1.336044   C356.927032,1.000000 434.854095,1.000000 513.000000,1.000000   C513.000000,78.687424 513.000000,156.375061 513.000000,234.531342  z"
   id="path6" />
<path
   fill="#FFFFFF"
   opacity="1.000000"
   stroke="none"
   d=" M1.000001,279.468658   C1.655435,282.986694 2.487176,286.953644 2.936864,290.963409   C5.339500,312.387085 11.069198,332.928009 18.960760,352.935730   C28.611706,377.404114 41.926559,399.786163 58.688206,419.914246   C77.105255,442.030182 98.463173,461.030853 123.175659,476.053406   C146.188644,490.042816 170.706635,500.508636 196.991608,506.351105   C209.328430,509.093262 221.988541,510.381073 234.751068,512.663940   C157.072968,513.000000 79.145927,513.000000 1.000000,513.000000   C1.000000,435.312561 1.000000,357.624939 1.000001,279.468658  z"
   id="path8" />
<path
   fill="#FFFFFF"
   opacity="1.000000"
   stroke="none"
   d=" M279.468658,513.000000   C282.986725,512.344604 286.953644,511.512878 290.963440,511.063202   C312.387085,508.660522 332.928009,502.930817 352.935699,495.039276   C377.404053,485.388367 399.785950,472.073425 419.914185,455.311981   C442.030334,436.895081 461.030609,415.536865 476.053284,390.824585   C490.042877,367.811768 500.508636,343.293732 506.350983,317.008728   C509.093079,304.671783 510.380981,292.011566 512.663940,279.248932   C513.000000,356.927032 513.000000,434.854095 513.000000,513.000000   C435.312561,513.000000 357.624939,513.000000 279.468658,513.000000  z"
   id="path10" />
<path
   fill="#fbd009"
   opacity="1.000000"
   stroke="none"
   d="m 224.09051,47.998138 c 9.5167,-0.941032 18.58283,-2.51017 27.66562,-2.613552 10.43174,-0.118736 20.92576,0.628811 31.30796,1.770726 18.76089,2.063465 36.94412,6.697609 54.37408,14.04895 23.38614,9.863464 44.40821,23.312401 63.08353,40.607348 27.24496,25.23116 46.96631,55.31105 57.88171,90.7043 4.27185,13.85146 6.47647,28.4536 8.40796,42.87652 1.44357,10.77906 1.62903,21.84784 1.17438,32.73751 -1.45645,34.88459 -11.12201,67.45392 -29.36597,97.3126 -27.65787,45.2658 -66.6326,76.5046 -117.03714,93.0852 -17.70917,5.82547 -35.98456,8.84937 -54.74997,9.82269 -20.80772,1.07929 -41.23958,-0.81338 -61.23631,-5.83133 -28.07135,-7.04422 -53.7668,-19.51025 -76.74814,-37.30798 C 92.021431,396.69083 66.824432,360.2493 53.581493,315.50607 47.875057,296.22607 45.078136,276.5264 45.214397,256.54306 45.563389,205.36275 62.26683,159.78551 95.194031,120.74931 124.43409,86.08432 161.3253,62.770573 205.57904,51.709 c 5.95807,-1.489262 12.0424,-2.473294 18.51147,-3.710862 z"
   id="path12"
   style="opacity:1;mix-blend-mode:darken;stroke:url(#radialGradient8554);stroke-width:3;stroke-miterlimit:0;stroke-dasharray:none" />
</svg>
