<svg xmlns="http://www.w3.org/2000/svg" xmlns:xlink="http://www.w3.org/1999/xlink" width="0" height="0" style="display:none;"><symbol viewBox="0 0 24 24" id="fluent-icons-ArrowCounterclockwise"><path d="M12 4.5a7.5 7.5 0 1 1-7.419 6.392c.067-.454-.265-.892-.724-.892a.749.749 0 0 0-.752.623A9 9 0 1 0 6 5.292V4.25a.75.75 0 0 0-1.5 0v3c0 .414.336.75.75.75h3a.75.75 0 0 0 0-1.5H6.9a7.473 7.473 0 0 1 5.1-2Z" fill="#212121"></path></symbol><symbol viewBox="0 0 24 24" id="fluent-icons-ArrowSync"><path d="M16.25 5.18a.75.75 0 0 0 .142 1.051 7.251 7.251 0 0 1-3.599 12.976l.677-.677a.75.75 0 0 0-.977-1.133l-.084.073-2 2a.75.75 0 0 0-.073.976l.073.084 2 2a.75.75 0 0 0 1.133-.976l-.072-.084-.75-.75A8.75 8.75 0 0 0 17.301 5.04a.75.75 0 0 0-1.051.141Zm-5.72-3.71a.75.75 0 0 0 0 1.06l.75.75a8.75 8.75 0 0 0-4.85 15.47.75.75 0 1 0 .956-1.157 7.251 7.251 0 0 1 3.82-12.8l-.676.677a.75.75 0 1 0 1.061 1.06l2-2a.75.75 0 0 0 0-1.06l-2-2a.75.75 0 0 0-1.06 0Z" fill="#212121"></path></symbol><symbol viewBox="0 0 24 24" id="fluent-icons-Cloud"><path d="M6.087 9.75a5.752 5.752 0 0 1 11.326 0h.087a4 4 0 0 1 0 8H6a4 4 0 0 1 0-8h.087ZM11.75 6.5a4.25 4.25 0 0 0-4.245 4.037.75.75 0 0 1-.749.713H6a2.5 2.5 0 0 0 0 5h11.5a2.5 2.5 0 0 0 0-5h-.756a.75.75 0 0 1-.75-.713A4.25 4.25 0 0 0 11.75 6.5Z" fill="#212121"></path></symbol><symbol viewBox="0 0 24 24" id="fluent-icons-CompassNorthwest"><path d="M8.707 7.084c-1.02-.407-2.03.604-1.624 1.624l1.606 4.028a4.75 4.75 0 0 0 2.541 2.607l4.325 1.854c1.038.445 2.086-.604 1.642-1.641l-1.854-4.326a4.75 4.75 0 0 0-2.607-2.541L8.707 7.084Zm1.375 5.096-1.39-3.488 3.488 1.39a3.25 3.25 0 0 1 1.784 1.74l1.608 3.75-3.751-1.607a3.25 3.25 0 0 1-1.739-1.785Z" fill="#ffffff"></path><path d="M12 2C6.477 2 2 6.477 2 12s4.477 10 10 10 10-4.477 10-10S17.523 2 12 2Zm-7.75 9h-.692A8.504 8.504 0 0 1 11 3.558v.692a.75.75 0 0 0 1.5 0v-.736A8.502 8.502 0 0 1 20.442 11h-.692a.75.75 0 0 0 0 1.5h.735a8.501 8.501 0 0 1-7.985 7.985v-.735a.75.75 0 0 0-1.5 0v.692A8.502 8.502 0 0 1 3.514 12.5h.736a.75.75 0 0 0 0-1.5Z" fill="#212121"></path></symbol><symbol viewBox="0 0 24 24" id="fluent-icons-Drop"><path d="M11.47 2.22a.75.75 0 0 1 1.06 0c.403.403 1.999 2.127 3.499 4.362C17.509 8.785 19 11.635 19 14.25c0 2.524-.746 4.479-2.044 5.806C15.659 21.38 13.889 22 12 22c-1.89 0-3.659-.619-4.956-1.944C5.746 18.729 5 16.774 5 14.25c0-2.615 1.492-5.465 2.971-7.668 1.5-2.235 3.096-3.96 3.499-4.362ZM9.216 7.418C7.758 9.59 6.5 12.115 6.5 14.25c0 2.226.653 3.771 1.617 4.757.965.987 2.32 1.493 3.883 1.493 1.562 0 2.918-.506 3.883-1.493.964-.986 1.617-2.53 1.617-4.757 0-2.135-1.258-4.66-2.716-6.832A33.359 33.359 0 0 0 12 3.848a33.357 33.357 0 0 0-2.784 3.57Z" fill="#212121"></path></symbol><symbol viewBox="0 0 24 24" id="fluent-icons-Info"><path d="M12 1.999c5.524 0 10.002 4.478 10.002 10.002 0 5.523-4.478 10.001-10.002 10.001-5.524 0-10.002-4.478-10.002-10.001C1.998 6.477 6.476 1.999 12 1.999Zm0 1.5a8.502 8.502 0 1 0 0 17.003A8.502 8.502 0 0 0 12 3.5Zm-.004 7a.75.75 0 0 1 .744.648l.007.102.003 5.502a.75.75 0 0 1-1.493.102l-.007-.101-.003-5.502a.75.75 0 0 1 .75-.75ZM12 7.003a.999.999 0 1 1 0 1.997.999.999 0 0 1 0-1.997Z" fill="#000000"></path></symbol><symbol viewBox="0 0 24 24" id="fluent-icons-Location"><path d="M5.843 4.568a8.707 8.707 0 1 1 12.314 12.314l-1.187 1.174c-.875.858-2.01 1.962-3.406 3.312a2.25 2.25 0 0 1-3.128 0l-3.491-3.396c-.439-.431-.806-.794-1.102-1.09a8.707 8.707 0 0 1 0-12.314Zm11.253 1.06A7.207 7.207 0 1 0 6.904 15.822L8.39 17.29a753.98 753.98 0 0 0 3.088 3 .75.75 0 0 0 1.043 0l3.394-3.3c.47-.461.863-.85 1.18-1.168a7.207 7.207 0 0 0 0-10.192ZM12 7.999a3.002 3.002 0 1 1 0 6.004 3.002 3.002 0 0 1 0-6.003Zm0 1.5a1.501 1.501 0 1 0 0 3.004 1.501 1.501 0 0 0 0-3.003Z" fill="#212121"></path></symbol><symbol viewBox="0 0 24 24" id="fluent-icons-Temperature"><path d="M12 2a3.25 3.25 0 0 1 3.245 3.065l.005.185.001 7.952.08.069a4.99 4.99 0 0 1 1.644 3.223l.019.252L17 17a5 5 0 1 1-8.51-3.56l.18-.17.079-.068.001-7.952a3.25 3.25 0 0 1 2.884-3.23l.182-.015L12 2Zm0 1.5a1.75 1.75 0 0 0-1.744 1.607l-.006.143v8.694l-.309.225a3.5 3.5 0 1 0 4.283.128l-.165-.127-.307-.225-.002-8.695A1.75 1.75 0 0 0 12 3.5ZM12 8a.75.75 0 0 1 .75.75v5.865a2.501 2.501 0 1 1-1.5 0V8.75A.75.75 0 0 1 12 8Z" fill="#212121"></path></symbol><symbol viewBox="0 0 24 24" id="fluent-icons-TopSpeed"><path d="m10.05 15.42 6.256-8.475a.694.694 0 0 1 1.235.57l-.03.098-3.87 9.799a2.07 2.07 0 1 1-3.737-1.765l.069-.116.076-.11 6.257-8.476-6.257 8.476Zm3.8-2.622-2.594 3.514-.04.062a.57.57 0 0 0 .222.776l.067.032a.57.57 0 0 0 .7-.238l.04-.083 1.605-4.063Zm4.76-5.384a10.66 10.66 0 0 1 2.022 2.172c.524.749 1.03 1.656 1.32 2.398a.75.75 0 1 1-1.397.547 8.238 8.238 0 0 0-.378-.812l-2.05 1.183a.75.75 0 0 1-.834-1.242l.085-.057 2.018-1.166-.23-.314a9.156 9.156 0 0 0-1.058-1.16l.38-.964c.038-.096.067-.194.087-.292l.024-.147.01-.146Zm-2.63-1.561a1.715 1.715 0 0 0-.406.328l-.114.14-.54.733a9.205 9.205 0 0 0-2.17-.47v2.672a.75.75 0 0 1-1.493.102l-.007-.102v-2.69A9.108 9.108 0 0 0 6.658 8.2c-.816.572-1.528 1.322-2.119 2.205l2.082 1.202a.75.75 0 0 1-.658 1.344l-.092-.045-2.074-1.197c-.128.266-.246.54-.356.821a.75.75 0 0 1-1.398-.543c.807-2.075 2.08-3.843 3.754-5.016a10.642 10.642 0 0 1 10.183-1.117Z" fill="#212121"></path></symbol><symbol viewBox="0 0 24 24" id="fluent-icons-WeatherBlowingSnow"><path d="M18.998 10a3.001 3.001 0 1 1 0 6h-.03l-.102.007H17.7c.19.373.298.795.298 1.242 0 1.53-1.152 2.757-2.675 2.757-1.505 0-2.415-.882-2.66-2.103a.75.75 0 1 1 1.47-.295c.114.565.457.898 1.19.898.672 0 1.175-.535 1.175-1.256 0-.689-.568-1.25-1.273-1.25l-12.488.007a.75.75 0 0 1-.102-1.494l.102-.006h12.387l.101-.007c.065 0 .128.002.191.006l3.472.002.054-.006.2-.009a1.5 1.5 0 1 0-1.629-1.723l-.027.239A.75.75 0 0 1 16 12.817 3.001 3.001 0 0 1 18.998 10ZM9.75 17.5a.75.75 0 1 1 0 1.5.75.75 0 0 1 0-1.5ZM12 4a4 4 0 0 1 .022 8H2.756a.75.75 0 0 1-.102-1.493l.102-.007H12l.165-.005A2.5 2.5 0 1 0 9.5 8 .75.75 0 1 1 8 8a4 4 0 0 1 4-4Zm7.25 2.5a.75.75 0 1 1 0 1.5.75.75 0 0 1 0-1.5ZM5.75 5a.75.75 0 1 1 0 1.5.75.75 0 0 1 0-1.5Z" fill="#212121"></path></symbol><symbol viewBox="0 0 24 24" id="fluent-icons-WeatherCloudy"><path d="M13.002 7.009c3.168 0 4.966 2.097 5.227 4.63h.08a3.687 3.687 0 0 1 3.692 3.683 3.687 3.687 0 0 1-3.692 3.682H7.694a3.687 3.687 0 0 1-3.692-3.682 3.687 3.687 0 0 1 3.692-3.683h.08c.263-2.55 2.06-4.63 5.228-4.63Zm0 1.497c-2.072 0-3.877 1.634-3.877 3.89 0 .357-.319.638-.684.638h-.69c-1.262 0-2.284 1-2.284 2.236 0 1.235 1.022 2.236 2.283 2.236h10.503c1.261 0 2.283-1 2.283-2.236 0-1.235-1.022-2.236-2.283-2.236h-.69c-.366 0-.685-.28-.685-.638 0-2.285-1.805-3.89-3.876-3.89ZM10 4c1.617 0 3.05.815 3.9 2.062a7.496 7.496 0 0 0-.898-.053c-.395 0-.775.029-1.139.085a3.22 3.22 0 0 0-5.032 2.062l-.073.414a1 1 0 0 1-.985.827h-.49a1.782 1.782 0 0 0-1.264 3.04c-.315.4-.565.855-.735 1.347a3.282 3.282 0 0 1 1.812-5.881l.257-.006A4.72 4.72 0 0 1 10 4Z" fill="#212121"></path></symbol><symbol viewBox="0 0 24 24" id="fluent-icons-WeatherFog"><path d="M7.745 19.5h8.501a.75.75 0 0 1 .102 1.493l-.102.007H7.745a.75.75 0 0 1-.102-1.493l.102-.007h8.501-8.501ZM4.75 16.52h14.5a.75.75 0 0 1 .102 1.492l-.102.007H4.75a.75.75 0 0 1-.102-1.493l.102-.007ZM12 3.004c3.168 0 4.966 2.097 5.227 4.63h.08A3.687 3.687 0 0 1 21 11.318 3.687 3.687 0 0 1 17.307 15H6.693A3.687 3.687 0 0 1 3 11.318a3.687 3.687 0 0 1 3.692-3.683h.08c.263-2.55 2.058-4.63 5.227-4.63Zm0 1.497c-2.071 0-3.877 1.634-3.877 3.89 0 .357-.319.638-.684.638h-.69c-1.261 0-2.284 1-2.284 2.236 0 1.235 1.023 2.236 2.284 2.236H17.25c1.261 0 2.284-1 2.284-2.236 0-1.235-1.023-2.236-2.284-2.236h-.69c-.365 0-.684-.28-.684-.638 0-2.285-1.806-3.89-3.877-3.89Z" fill="#212121"></path></symbol><symbol viewBox="0 0 24 24" id="fluent-icons-WeatherHaze"><path d="M6.842 13.984a5.648 5.648 0 0 1 1.713.021c1.293.21 2.522.838 3.823 1.597 2.357 1.375 4.946 1.102 6.436.038a.75.75 0 0 1 .872 1.22c-2.01 1.436-5.24 1.685-8.064.038-1.29-.752-2.31-1.25-3.307-1.412-.957-.155-1.955-.01-3.206.673a.75.75 0 0 1-.718-1.317c.861-.47 1.668-.748 2.45-.858Z" fill="#ffffff"></path><path d="M8.113 10.95a5.641 5.641 0 0 0-1.553.08c-.695.132-1.411.397-2.17.811a.75.75 0 1 0 .719 1.317c1.25-.682 2.248-.828 3.205-.672.997.162 2.018.66 3.307 1.411 2.825 1.648 6.055 1.398 8.064-.037a.75.75 0 0 0-.871-1.22c-.41.291-.9.524-1.448.679a5.914 5.914 0 0 1-1.645.218 6.717 6.717 0 0 1-3.344-.935c-1.301-.76-2.53-1.387-3.823-1.597a5.921 5.921 0 0 0-.441-.055Z" fill="#ffffff"></path><path d="M17.525 12c0 .07-.002.14-.004.21-.447.18-.967.296-1.531.322a4.025 4.025 0 0 0-7.477-2.544 6.643 6.643 0 0 0-1.655-.015A5.527 5.527 0 0 1 17.525 12ZM12.122 22a.758.758 0 0 1-.252 0h.252ZM5.974 4.941l-.084-.073a.75.75 0 0 0-.977 1.134l1.06 1.06.085.073a.75.75 0 0 0 .976-1.133L5.974 4.94ZM19.15 5.918a.75.75 0 0 0-1.132-.977l-1.061 1.06-.073.085a.75.75 0 0 0 1.134.976l1.06-1.06.073-.084ZM12.743 2.638a.75.75 0 0 0-1.493.102v1.5l.007.101a.75.75 0 0 0 1.493-.102v-1.5l-.007-.101ZM5.11 19.159c1.25-.683 2.248-.828 3.205-.673.996.162 2.018.66 3.307 1.412 2.825 1.647 6.055 1.398 8.064-.038a.75.75 0 1 0-.872-1.22c-1.49 1.064-4.079 1.337-6.436-.038-1.301-.759-2.53-1.386-3.823-1.596-1.333-.217-2.665.018-4.164.836a.75.75 0 1 0 .718 1.317Z" fill="#212121"></path></symbol><symbol viewBox="0 0 24 24" id="fluent-icons-WeatherMoon"><path d="M20.026 17.001c-2.762 4.784-8.879 6.423-13.663 3.661a9.964 9.964 0 0 1-3.234-2.983.75.75 0 0 1 .365-1.131c3.767-1.348 5.785-2.911 6.956-5.146 1.232-2.353 1.551-4.93.689-8.464a.75.75 0 0 1 .769-.926 9.961 9.961 0 0 1 4.457 1.327C21.149 6.1 22.788 12.217 20.025 17Zm-8.248-4.903c-1.25 2.388-3.31 4.099-6.817 5.499a8.492 8.492 0 0 0 2.152 1.766 8.501 8.501 0 1 0 8.502-14.725 8.485 8.485 0 0 0-2.792-1.016c.647 3.384.23 6.044-1.045 8.476Z" fill="#212121"></path></symbol><symbol viewBox="0 0 24 24" id="fluent-icons-WeatherRain"><path d="M12 4c3.169 0 4.966 2.098 5.227 4.63h.08A3.687 3.687 0 0 1 21 12.314a3.687 3.687 0 0 1-3.693 3.683h-.582l-1.582 2.634a.75.75 0 0 1-1.344-.658l.045-.092 1.149-1.884h-2.136l-1.582 2.634a.75.75 0 0 1-1.344-.658l.045-.092 1.149-1.884H8.988L7.406 18.63a.75.75 0 0 1-1.343-.658l.044-.092 1.149-1.884h-.563A3.687 3.687 0 0 1 3 12.313a3.687 3.687 0 0 1 3.692-3.682h.08C7.036 6.08 8.832 4 12 4Zm0 1.498c-2.071 0-3.877 1.634-3.877 3.89 0 .357-.319.637-.684.637h-.69c-1.261 0-2.284 1.002-2.284 2.237s1.023 2.236 2.284 2.236h10.503c1.26 0 2.283-1.001 2.283-2.236 0-1.235-1.023-2.237-2.284-2.237h-.69c-.365 0-.684-.28-.684-.637 0-2.285-1.806-3.89-3.877-3.89Z" fill="#212121"></path></symbol><symbol viewBox="0 0 24 24" id="fluent-icons-WeatherSnowflake"><path d="M11.75 2a.75.75 0 0 1 .743.649l.007.102-.001 3.345 2.172-1.907a.75.75 0 0 1 .99 1.127L12.5 8.093 12.498 11h2.909l2.78-3.16a.75.75 0 0 1 .97-.135l.088.067a.75.75 0 0 1 .135.97l-.067.088L17.405 11h3.345a.75.75 0 0 1 .743.649l.007.101a.75.75 0 0 1-.648.743l-.102.007h-3.348l1.909 2.173a.75.75 0 0 1 .01.98l-.078.078a.75.75 0 0 1-.98.01l-.079-.078-2.779-3.163h-2.908l.001 2.907 3.164 2.78a.75.75 0 0 1 .135.97l-.067.089a.75.75 0 0 1-.97.135l-.088-.067-2.174-1.91-.001 3.348a.75.75 0 0 1-.649.743l-.101.006a.75.75 0 0 1-.743-.648l-.007-.102-.001-3.343-2.167 1.906a.75.75 0 0 1-.99-1.127l3.158-2.777v-2.91H8.312l-2.997 3.413a.75.75 0 0 1-1.127-.99l2.128-2.423-3.566.002a.75.75 0 0 1-.743-.649L2 11.751a.75.75 0 0 1 .648-.744l.102-.006h3.124L4.188 9.078a.75.75 0 1 1 1.127-.99L7.87 11h3.128V8.09l-3.16-2.778a.75.75 0 0 1-.135-.97l.067-.088a.75.75 0 0 1 .97-.135l.089.067 2.17 1.907L11 2.75a.75.75 0 0 1 .55-.723l.098-.02L11.75 2Z" fill="#212121"></path></symbol><symbol viewBox="0 0 24 24" id="fluent-icons-WeatherSqualls"><path d="M18.998 10a3.001 3.001 0 0 1 .176 5.995l-.207.005-.102.007H17.7c.19.373.298.795.298 1.242 0 1.53-1.153 2.757-2.675 2.757-1.505 0-2.415-.882-2.66-2.103a.75.75 0 0 1 1.47-.295c.114.565.457.898 1.19.898.672 0 1.175-.535 1.175-1.256 0-.689-.568-1.25-1.273-1.25l-12.488.007a.75.75 0 0 1-.102-1.494l.102-.006h12.387l.101-.007c.065 0 .128.002.191.006l3.472.002.054-.006.2-.009a1.5 1.5 0 1 0-1.629-1.723l-.027.239A.75.75 0 0 1 16 12.817 3.001 3.001 0 0 1 18.998 10ZM12 12H2.756a.75.75 0 0 1-.102-1.493l.102-.007H12A2.5 2.5 0 1 0 9.5 8 .75.75 0 1 1 8 8a4 4 0 1 1 4.221 3.994l-.22.006H2.755 12Z" fill="#212121"></path></symbol><symbol viewBox="0 0 24 24" id="fluent-icons-WeatherSunny"><path d="M11.996 19.01a.75.75 0 0 1 .743.649l.007.102v1.5a.75.75 0 0 1-1.493.101l-.007-.101v-1.5a.75.75 0 0 1 .75-.75Zm6.022-2.072 1.06 1.06a.75.75 0 1 1-1.06 1.061l-1.06-1.06a.75.75 0 0 1 1.06-1.061Zm-10.983 0a.75.75 0 0 1 0 1.06L5.974 19.06a.75.75 0 0 1-1.06-1.06l1.06-1.061a.75.75 0 0 1 1.06 0ZM12 6.475a5.525 5.525 0 1 1 0 11.05 5.525 5.525 0 0 1 0-11.05Zm0 1.5a4.025 4.025 0 1 0 0 8.05 4.025 4.025 0 0 0 0-8.05Zm9.25 3.293a.75.75 0 0 1 .102 1.493l-.102.007h-1.5a.75.75 0 0 1-.102-1.493l.102-.007h1.5Zm-17-.029a.75.75 0 0 1 .102 1.494l-.102.006h-1.5a.75.75 0 0 1-.102-1.493l.102-.007h1.5Zm1.64-6.37.084.072 1.06 1.06a.75.75 0 0 1-.976 1.134l-.084-.073-1.06-1.06a.75.75 0 0 1 .976-1.134Zm13.188.072a.75.75 0 0 1 .073.977l-.073.084-1.06 1.06a.75.75 0 0 1-1.133-.976l.072-.084 1.06-1.061a.75.75 0 0 1 1.061 0ZM12 1.99a.75.75 0 0 1 .743.648l.007.102v1.5a.75.75 0 0 1-1.493.101l-.007-.102v-1.5a.75.75 0 0 1 .75-.75Z" fill="#212121"></path></symbol></svg>